# xmcd
#
# Track frame offsets:
#	150
#	19277
#	37466
#	50429
#	65083
#	89512
#	105672
#	125598
#	144482
#	167493
#	188639
#	212481
#
# Disc length: 2963 seconds
#
# Revision: 0
# Processed by: cddbd v1.5.1PL2 Copyright (c) Steve Scherf et al.
# Submitted via: dBpowerAMP V4.0
#
DISCID=b00b910c
DTITLE=MC Cajun - Hundred Up
DYEAR=1900
DGENRE=Country
TTITLE0=J'ete au bal
TTITLE1=Desperate Danny
TTITLE2=Midnight on the Water
TTITLE3=Flammes D'Enfer
TTITLE4=Grand Bois
TTITLE5=Feel So Bad
TTITLE6=Zydec'O'
TTITLE7=Cookhouse Blues
TTITLE8=Joli Catin
TTITLE9=Ambrosia
TTITLE10=Uncle Joe
TTITLE11=Spooky Zydeco
EXTD=\n
EXTT0=
EXTT1=
EXTT2=
EXTT3=
EXTT4=
EXTT5=
EXTT6=
EXTT7=
EXTT8=
EXTT9=
EXTT10=
EXTT11=
PLAYORDER=
